<svg xmlns="http://www.w3.org/2000/svg" viewBox="0 0 220.35 430.33"><defs><style>.cls-1{fill:#f9deeb;}.cls-2{fill:#412416;}.cls-3{fill:#3c1d0f;}.cls-4{fill:#f089b8;}.cls-5{fill:#d9729d;}.cls-6{fill:#d7729c;}.cls-7{fill:#d8719c;}.cls-8{fill:#6f2a3a;}.cls-9{fill:#f6c7de;}.cls-10{fill:#d8729d;}.cls-11{fill:#f6c7df;}</style></defs><title>Asset 1</title><g id="Layer_2" data-name="Layer 2"><g id="Layer_1-2" data-name="Layer 1"><g id="_9vcKV5.tif" data-name="9vcKV5.tif"><path class="cls-1" d="M219.8,165.29a78.48,78.48,0,0,1,.16,17.06,75.19,75.19,0,0,1-3.14,16.44,8.3,8.3,0,0,0,.06,5.1c2.17,6.39.9,12.67.1,19-.62,4.91-2.1,9.73-2,14.71.07,3.22.82,6.41,1.08,9.63.41,5.09-1,9.76-2.75,14.56-3.09,8.59-8.34,15.81-13.56,23s-12.14,13.29-19.43,18.65A119.8,119.8,0,0,1,151.61,319c-4.81,1.82-9.67,3.52-14.57,5-1.59.5-2,1.22-2,2.68.14,9-1,17.86-1.29,26.81s-.69,17.89-1.14,26.82q-.71,13.84-1.23,27.7c-.14,3.53-.3,7.07-.52,10.6-.31,5.08-2.78,8-8.52,9.52a92.56,92.56,0,0,1-10.54,2.05c-7.09,1-10.51-6.3-9.83-11.3.76-5.53,1.28-11.1,1.69-16.66.87-11.85,1.77-23.69,2.28-35.56.2-4.42.43-8.85.79-13.24.48-6,.1-12,1-17.94.62-3.94.13-4.67-3.93-4.19-6.89.81-13.77.48-20.65.48-9.56,0-18.75-2.24-27.92-4.84A66.9,66.9,0,0,1,40,320.26c-4.21-2.44-7.33-6.34-10.58-9.93a43.91,43.91,0,0,0-3.36-3.71c-2.93-2.54-3.94-5.87-4.39-9.56-.53-4.4-3.09-8.16-4-12.45C16.4,279,14.54,273.42,16,267.52a2.57,2.57,0,0,0-.9-2.88c-9.1-7.49-13.93-21.66-15-30a82.16,82.16,0,0,1,0-8.3,10.77,10.77,0,0,1,.39-3,21.68,21.68,0,0,0,.81-5.33,35,35,0,0,1,6.5-19.23c1.68-2.41,1.76-4.32.28-7.2C2.26,180.18-.43,168.1,2.19,155.15a74.41,74.41,0,0,1,12.7-29.37A132.13,132.13,0,0,1,29,108.87a5,5,0,0,0,1.6-5.41c-2.32-10.31-.79-19.91,5.26-28.94A101.09,101.09,0,0,1,51,56.62c1.8-1.68,4.31-2.86,5.89-4.39,2.39-2.33,5.39-3.89,7.51-6.35,4.46-5.18,10-9.46,12.67-16.15a28.57,28.57,0,0,0,2.27-10.56c0-5.11.1-10.17,1.77-15.12a5.39,5.39,0,0,1,4.93-4c9.28-.65,16.21,3.82,21.76,10.75,3.89,4.85,5.82,10.64,7,16.66.27,1.3.77,1.63,2,1.43a41.59,41.59,0,0,1,20.33,1.58c11.7,4,20.86,13.87,20.89,27.43a3.47,3.47,0,0,0,2.85,3.4c10.36,1.82,18.32,7.65,24.19,16,4.33,6.17,7.48,13.12,7.92,20.93a12.94,12.94,0,0,0,.25,1.75c.37,1.82,7.25,12.19,8.59,13.58,4.13,4.26,5.34,9.59,4.47,15.25-.39,2.6,0,4.12,2.11,5.79,4.8,3.85,7.06,9.28,8.24,15.2q1.48,7.47,3,14.95c-.75,2.44.06,5-.41,7.47C219.72,170,218.76,167.53,219.8,165.29Z"/><path class="cls-1" d="M219.8,165.29v7.58c-.38-2.7-1.64-5.43-.16-8.09A1,1,0,0,0,219.8,165.29Z"/><path class="cls-2" d="M42.07,109a2,2,0,0,0,.34-2.6c-5.89-9.87-3.65-19.09,2.43-27.93,7.47-10.86,17.31-19.34,27.4-27.62,10.74-8.8,17.34-19.81,17-34.21a33.6,33.6,0,0,0-.38-5C88.49,9.58,89,9.2,91,9.94c6.92,2.61,10.93,7.84,13.24,14.58a35.59,35.59,0,0,1,1.78,14c-.17,2.36.53,2.5,2.6,1.95,6.39-1.69,12.85-3.31,19.53-2.36,15.49,2.2,23,13.17,19.71,28.94-.52,2.53-.58,3.3,2.52,3.1,17.71-1.12,32.06,12.38,33.35,31.16a52,52,0,0,1-1.08,15.89c-.4,1.65-.27,2.3,1.69,2.08a34.41,34.41,0,0,1,6.5-.07c4.38.33,7.86,3.13,6,8.35-2.31,6.49-.87,9.79,4.59,13.78a13.75,13.75,0,0,1,5.24,8.35c3,13.33,5,26.75,2.46,40.43a32.77,32.77,0,0,1-3.19,9.19,3,3,0,0,0,0,3.23c3.76,7.49,4.79,15.19,1,23-1.39,2.85-1.23,5.87-.7,8.72,3.76,20.42-6.08,35.69-18.75,49.78-13.05,14.52-30,22.71-48.14,28.85-3.92,1.33-7.79,2.8-11.72,4.06a2.44,2.44,0,0,0-2.07,2.64c-1.37,31.95-2.82,63.89-4.17,95.84-.09,2.09-.56,3.25-2.76,3.65s-4.31,1.14-6.75,1.81c.44-6,.88-11.68,1.27-17.37,1.41-20.68,2.74-41.36,3.69-62.07.29-6.3.57-12.61,1-18.91.17-2.36-.55-2.8-2.78-2.49-7.6,1.07-15.2,2.41-22.89,2.56-15,.29-29.6-2-43.08-8.55C33.92,306.7,27,293.37,25.53,277a43.06,43.06,0,0,1,.36-10.63,8,8,0,0,0-3.13-8.1C12.57,250.3,9,239.77,10.08,227.13c.82-9.8,2.7-19.11,8.74-27.2,2.19-2.92,2.6-5.63.05-9.2a40.88,40.88,0,0,1-7.6-27.92c1.6.13,2.47,1.18,3.39,2.39,1.16,1.53,2,3.65,4.49,3.53,5.24,4.39,11.11,4.43,17.56,3.32,10.25-1.76,20-5,29.84-8.25a45.1,45.1,0,0,0,5.67-2.45c.76-.33,1.78-1,2.35,0s-.5,1.58-1.16,2.11c-4.22,3.37-8.49,6.69-12.84,9.89-6.16,4.54-12.09,9.39-18.23,14-6.18,4.87-12.82,9.25-17.6,15.64-6.87,9.19-10.1,19.47-8.6,31.05.31,2.44.39,4.9,1.38,7.21A4,4,0,0,0,21.59,244a17.29,17.29,0,0,0,5.78-.86c10.56-3.65,20.21-9.24,30.23-14.05a3.14,3.14,0,0,1,.89-.22,1.44,1.44,0,0,1,1.55.78,1.49,1.49,0,0,1-.22.87c-3,3.34-6.74,5.75-10,8.79-6.68,6.28-12.51,13.23-15.28,22.13-3.87,12.46.88,26.37,12.24,33.27,6.28,3.82,12.85,6.54,20.58,6.33,6.23-.18,11.54-2.31,16.63-5.39,15-9,29.22-19.07,44.11-28.17A229,229,0,0,1,160,250.73c5.74-1.61,11.49-2.57,17.48-1.13,3.92.94,7.31,2.91,10.78,4.75,4,2.12,6.47,1.59,9-2.17,5.68-8.27,4.68-20.47-2.28-27.65a76.11,76.11,0,0,0-6.69-6.26c-.74-.6-1.71-1.43-1.17-2.47s1.72-.76,2.7-.61a28.75,28.75,0,0,1,7.91,2.36c1.53.71,3,1,4.4-.26a4.7,4.7,0,0,0,1.56-4.55c-.55-2.92-2-5-5-6-4.44-1.36-8.93-2.49-13.45-3.51-1.18-.27-3-.22-3-1.78s1.89-1.46,3.05-1.67c3.79-.68,7.55-1.42,11.26-2.46a7.43,7.43,0,0,0,5.76-6c2.56-11,4.07-21.89.88-33a46.47,46.47,0,0,0-7.07-14.57c-1.44-2-2.82-4-4.1-6.15a16.39,16.39,0,0,1-2.1-10.54c.21-2.12-.54-2.81-2.69-2.59-2.45.25-4.9.49-7.34.84-3,.41-3.74-.06-3.58-3,.26-5.12.28-10.26.87-15.35,1.35-11.48-2-21-11.87-27.43-7.68-5.05-15.81-5.78-24-1.11A19.79,19.79,0,0,1,134.72,81c-.79.13-1.66.23-2.13-.58s0-1.54.54-2.15c1.71-2,3.6-3.92,5.38-5.9,5.22-5.81,5-12.26,2.15-18.8s-8.33-9.52-15.24-10a43.71,43.71,0,0,0-15.2,1.74,68.5,68.5,0,0,1-7,1.43c-3.14.52-4-.33-3.66-3.46a60.23,60.23,0,0,0-.14-13.88c-.79-6.11-3.55-11.22-7.89-16.29.18,2.13.34,3.75.54,5.33C93.91,32,89.05,43.31,79.88,53.11c-5,5.37-11.2,9.35-16.71,14.13C54.29,75,48.53,84.74,44.73,95.72c-1.59,4.58.05,7.5,4.55,9.46.73.32,1.5.49,2.23.78,1.91.77,2,1.58.42,2.92a21.06,21.06,0,0,1-3.52,2.17,2.63,2.63,0,0,1-1.3.18A34.27,34.27,0,0,0,42.07,109Z"/><path class="cls-3" d="M42.07,109c2.1-.69,3.58.26,4.8,1.86-.75,1.95-2.5,3-4,4.25C29.08,127,21,142.2,17.63,160c-.59,3.09.13,6,.83,9-.77,1.23-1.15.64-1.87-.18-1.77-2-3-4.49-5.32-6,.23-11.43,4.77-21.34,11-30.6,4.66-7,10.43-13,16.11-19.14C39.6,111.73,40.32,109.89,42.07,109Z"/><path class="cls-4" d="M48,110.75l4.67-3.31c-.07-.88-.62-.79-1.09-.85-6.67-.85-9.83-5.49-7.51-11.77,4.16-11.25,10.29-21.27,19.61-29.09,5.44-4.55,11.29-8.6,16.2-13.8C89.9,41.32,93.39,28.86,91,14.58a5.12,5.12,0,0,1-.1-3.25,26.8,26.8,0,0,1,8,11.85c2.34,6.47,2.2,13.19,1.62,19.91-.29,3.46-.42,3.37,2.83,2.78,6.29-1.15,12.43-3.19,18.89-3.33,5.48-.13,10.65.84,14.88,4.62,8.45,7.56,8.4,19.75,0,28.17-1.51,1.51-3.26,2.8-4.45,5a11.65,11.65,0,0,0,7.12-1.9c10.51-7.27,24-3.68,32.13,5.59,5.93,6.73,6.81,14.61,6.18,23-.4,5.21-.65,10.44-1,15.65-.13,1.87.37,2.38,2.33,2,3-.63,6.05-.79,9.06-1.28,2-.32,3,.4,2.55,2.33-1.29,5.48.45,10.18,3.66,14.4,5.15,6.77,9.07,14.05,10.51,22.55,1.83,10.77.15,21.23-2.73,31.57-.58,2.11-2.63,2.87-4.49,3.52-4.58,1.6-9.38,2.23-14.12,3.13a1.65,1.65,0,0,0-1.14.84c2.2.52,4.41,1,6.59,1.58,3.7,1,7.44,1.95,11.07,3.19,3.1,1.07,5.1,5.28,4.35,8.47-.83,3.54-3.71,5-7,3.36s-6.67-2.22-11-2.87c3.4,3.1,6.28,5.57,9,8.22,7.67,7.51,8.4,21.93,1.61,30.17-2.24,2.72-5.77,3.56-8.42,1.73-8.5-5.91-17.64-7.45-27.55-4.39a6.34,6.34,0,0,1-1.16.14c-5.5,1.23-11.15,1-16.71,1.76-7,.94-13.93,2.61-20.89,3.88-12.15,2.21-23.18,7.32-34.32,12.34-8.18,3.68-16.76,6.4-25.9,6.44-7.92,0-13.59-4.86-14.81-12.74-.29-1.85-.48-3.71-.71-5.57-.66-5.35,1.15-9.89,4.65-13.84.52-.59,1.07-1.16,1.63-1.72,3.37-3.34,6.56-6.79,6.93-11.89l-.09-.15A2.5,2.5,0,0,1,61,228.54a8.17,8.17,0,0,1-2.42.7,1.51,1.51,0,0,0-.48.08c-1.84.46-3.9.27-5.19,2.2-.6.91-1.63.42-2.44.08a8.77,8.77,0,0,0-6,0c-3.49,1-7,2-10.68,2.07-7.8.06-11.8-4-11.92-11.74-.11-7,2.81-12.82,6.7-18.2q6.39-8.85,13.64-17c8.11-6.86,16.85-12.92,25.24-19.43,2.39-1.86,4.82-3.68,7.9-6-3.5.53-5.53,2.66-8.19,3a1.87,1.87,0,0,1-2.57-.69c-1.56-2.53-3.91-2.37-6.29-1.81a114.4,114.4,0,0,1-13.37,2.36c-4,.46-8,.64-12-.65-4.43-1.45-6.49-3.91-6.86-8.53a22,22,0,0,1,2.16-11.2,103.12,103.12,0,0,1,13.48-21.46C44.45,118.82,48.1,115.8,48,110.75Z"/><path class="cls-5" d="M59.92,230c1.75,4.82-2,7.39-4.39,10.4-1.82,2.29-4.17,4.14-5.76,6.69a11.74,11.74,0,0,0-2,4.84c-.63,6.14-.18,12.07,3.16,17.55,3.7,6.08,9.59,6.09,15.39,5.3A87.25,87.25,0,0,0,95.66,265C107,259,119.5,256.9,131.82,254.24a116,116,0,0,1,28.23-2.89c-23.79,10.4-44.84,25.42-66.58,39.29-4.72,3-9.58,5.83-14.48,8.54s-10.41,3.09-15.84,2.46a37.45,37.45,0,0,1-22.62-11.13C31.3,281.26,29.75,265,37.3,253.28a71.94,71.94,0,0,1,16.5-18.37C55.87,233.31,57.88,231.64,59.92,230Z"/><path class="cls-6" d="M48,110.75c1.33,3.75-.79,6.25-3,8.81A99.68,99.68,0,0,0,28.42,145a17.63,17.63,0,0,0-1,13,7.3,7.3,0,0,0,4.71,4.38c5.68,2.1,11.42,1.22,17.14.27,3.47-.58,6.89-1.46,10.37-2,2.32-.37,4.63-.19,5.58,2.57.35,1,1.17.87,1.9,1a148.55,148.55,0,0,1-27.61,8.15,54.27,54.27,0,0,1-8.73,1.21A16.18,16.18,0,0,1,18.46,169c-3.31-5.06-1.61-10.34-.25-15.34,4.76-17.43,14-31.95,28.66-42.79Z"/><path class="cls-7" d="M42.14,186.68c-1.14,3.59-4.16,5.86-6.23,8.78-2.43,3.43-5.63,6.34-7.83,9.89-3.64,5.86-6.33,12.14-5.49,19.37.5,4.39,4.58,7.94,9.65,8.17,4.6.21,8.89-1.24,13.23-2.4,1-.27,2-.74,3.14-.3,2,.8,3.93,1.66,5.58-1,.74-1.22,2.56,0,3.88.17-10.42,5.91-21,11.43-32.44,15.16-5.84,1.92-8.53.21-9.65-5.89-3.22-17.72,2-32.49,15.91-44C35.21,191.84,38.41,188.92,42.14,186.68Z"/><path class="cls-8" d="M58.55,229.24a18.87,18.87,0,0,1,5-2.51,8.91,8.91,0,0,1-3.76,3.13Z"/><path class="cls-9" d="M148,84.47c7.85-1.13,19.65,2.18,23.71,10.85,2.05,4.38,4.24,8.35,3,13.32-.87,3.56-3,6.26-5,6.29s-4.2-2.34-4.86-6.3a37.19,37.19,0,0,0-7.72-17.18c-2.24-2.85-5.16-4.46-8.22-6C148.48,85.21,147.92,85.13,148,84.47Z"/><path class="cls-10" d="M137.36,203.34a2.69,2.69,0,0,1-1.42,2.11,44.9,44.9,0,0,1-13,6.1c-8.11,2.59-16.51,3.89-24.86,5.42-3.72.68-7.55,1.14-11.07,2.73-.56.25-1.08.72-1.43-.11s.46-1,.94-1.23c4.4-2.13,8.72-4.45,13.24-6.3,8.41-3.44,17.13-6,25.81-8.71a36.35,36.35,0,0,1,9.86-1.27C136.36,202.06,137.31,202,137.36,203.34Z"/><path class="cls-11" d="M111.74,51.32a3.39,3.39,0,0,1,2.86-.94c5.12,0,10.25,0,15.37-.06,2,0,3.36,1,4.77,2,4,2.88,7,9.68,5.15,13.72-.9,2-1.69,4.08-4.53,3.86s-3.69-2.1-4.19-4.27a20.37,20.37,0,0,0-3.82-7.48c-3.34-4.6-8-5.6-13.09-6a19.78,19.78,0,0,1-2-.27C112.09,51.85,112,51.6,111.74,51.32Z"/></g></g></g></svg>