<svg width="50" height="50" viewBox="0 0 50 50" fill="none" xmlns="http://www.w3.org/2000/svg">
<path d="M23.7674 0C24.6638 0 25.5491 0 26.4455 0C28.7203 0.189605 30.9727 0.501896 33.113 1.30493C42.9292 5.03011 48.7562 12.0344 49.8543 22.4738C50.7284 30.8833 47.7701 38.0883 41.3044 43.5757C34.3456 49.4758 26.3111 50.9703 17.537 48.4385C16.1587 48.037 14.8476 47.4459 13.5814 46.7767C13.346 46.654 13.1219 46.5983 12.8418 46.6763C8.62842 47.7917 4.41506 48.8847 0.201703 49.9888C-0.156881 49.8439 0.112057 49.5985 0.15688 49.4423C1.22142 45.5499 2.29718 41.6462 3.38413 37.7649C3.49619 37.3522 3.45137 37.0399 3.24966 36.6719C-1.63604 27.7047 -0.661139 16.9864 5.84939 9.10105C10.2084 3.82556 15.8561 0.814187 22.714 0.111532C23.0614 0.0780727 23.42 0.0334597 23.7674 0ZM12.4608 19.3732C12.4608 20.4997 12.7297 21.6708 13.2564 22.7638C14.8476 26.0428 17.1784 28.7754 19.8342 31.2514C22.5011 33.7386 25.6723 35.3335 29.1461 36.3484C31.4881 37.0288 33.7293 36.8503 35.7911 35.3781C37.2703 34.3297 37.7185 32.8686 37.7297 31.1733C37.7297 30.8053 37.5728 30.5264 37.2367 30.3591C35.5558 29.5561 33.8862 28.7419 32.1941 27.9723C31.4881 27.6489 31.1856 27.7827 30.7037 28.385C30.121 29.1211 29.5159 29.8572 28.922 30.5934C28.5746 31.006 28.1712 31.1399 27.6334 30.9279C23.9355 29.4557 21.1004 27.0132 19.0722 23.6003C18.7808 23.1095 18.8144 22.7303 19.2066 22.3065C19.6549 21.8381 20.0583 21.325 20.4505 20.812C20.9323 20.1762 21.0556 19.5182 20.6858 18.7375C20.1367 17.5664 19.6773 16.3507 19.173 15.1573C18.411 13.3504 18.411 13.3504 16.4276 13.3393C15.8225 13.3393 15.2846 13.5066 14.8364 13.9081C13.2788 15.3469 12.4384 17.1202 12.4608 19.3732Z" fill="#EFF5F3"/>
</svg>
